HIERARCHY
ROOT SimulationBone
{
	OFFSET 0.000000 0.000000 0.000000
	CHANNELS 6 Xposition Yposition Zposition Zrotation Yrotation Xrotation 
	JOINT Hips
	{
		OFFSET 0.000000 0.000000 0.000000
		CHANNELS 6 Xposition Yposition Zposition Zrotation Yrotation Xrotation 
		JOINT LeftUpLeg
		{
			OFFSET 0.103455 1.857829 10.548506
			CHANNELS 3 Zrotation Yrotation Xrotation
			JOINT LeftLeg
			{
				OFFSET 43.499996 -0.000034 0.000000
				CHANNELS 3 Zrotation Yrotation Xrotation
				JOINT LeftFoot
				{
					OFFSET 42.372192 0.000015 -0.000006
					CHANNELS 3 Zrotation Yrotation Xrotation
					JOINT LeftToe
					{
						OFFSET 17.299999 -0.000000 -0.000002
						CHANNELS 3 Zrotation Yrotation Xrotation
						End Site
						{
							OFFSET 0.000000 0.000000 0.000000
						}
					}
				}
			}
		}
		JOINT RightUpLeg
		{
			OFFSET 0.103461 1.857828 -10.548504
			CHANNELS 3 Zrotation Yrotation Xrotation
			JOINT RightLeg
			{
				OFFSET 43.500038 -0.000027 0.000010
				CHANNELS 3 Zrotation Yrotation Xrotation
				JOINT RightFoot
				{
					OFFSET 42.372265 -0.000004 0.000015
					CHANNELS 3 Zrotation Yrotation Xrotation
					JOINT RightToe
					{
						OFFSET 17.299992 -0.000005 0.000008
						CHANNELS 3 Zrotation Yrotation Xrotation
						End Site
						{
							OFFSET 0.000000 0.000000 0.000000
						}
					}
				}
			}
		}
		JOINT Spine
		{
			OFFSET 6.901968 -2.603732 0.000000
			CHANNELS 3 Zrotation Yrotation Xrotation
			JOINT Spine1
			{
				OFFSET 12.588099 -0.000001 0.000001
				CHANNELS 3 Zrotation Yrotation Xrotation
				JOINT Spine2
				{
					OFFSET 12.343203 -0.000001 -0.000000
					CHANNELS 3 Zrotation Yrotation Xrotation
					JOINT Neck
					{
						OFFSET 25.832890 -0.000002 0.000001
						CHANNELS 3 Zrotation Yrotation Xrotation
						JOINT Head
						{
							OFFSET 11.766614 0.000006 0.000000
							CHANNELS 3 Zrotation Yrotation Xrotation
							End Site
							{
								OFFSET 0.000000 0.000000 0.000000
							}
						}
					}
					JOINT LeftShoulder
					{
						OFFSET 19.745895 -1.480368 6.000105
						CHANNELS 3 Zrotation Yrotation Xrotation
						JOINT LeftArm
						{
							OFFSET 11.284125 -0.000008 -0.000020
							CHANNELS 3 Zrotation Yrotation Xrotation
							JOINT LeftForeArm
							{
								OFFSET 33.000050 0.000002 0.000037
								CHANNELS 3 Zrotation Yrotation Xrotation
								JOINT LeftHand
								{
									OFFSET 25.200003 0.000015 -0.000001
									CHANNELS 3 Zrotation Yrotation Xrotation
									End Site
									{
										OFFSET 0.000000 0.000000 0.000000
									}
								}
							}
						}
					}
					JOINT RightShoulder
					{
						OFFSET 19.746092 -1.480371 -6.000073
						CHANNELS 3 Zrotation Yrotation Xrotation
						JOINT RightArm
						{
							OFFSET 11.284139 -0.000016 -0.000008
							CHANNELS 3 Zrotation Yrotation Xrotation
							JOINT RightForeArm
							{
								OFFSET 33.000092 0.000014 0.000002
								CHANNELS 3 Zrotation Yrotation Xrotation
								JOINT RightHand
								{
									OFFSET 25.199774 0.000137 0.000428
									CHANNELS 3 Zrotation Yrotation Xrotation
									End Site
									{
										OFFSET 0.000000 0.000000 0.000000
									}
								}
							}
						}
					}
				}
			}
		}
	}
}
MOTION
Frames: 13
Frame Time: 0.033333
4.132614 0.000000 340.326704 0.000000 -75.123961 0.000000 6.010907 75.168900 -0.357358 100.506762 4.243577 163.999968 -168.611402 -4.608503 168.699758 -84.461805 1.076909 -5.587375 73.289255 0.736337 -10.599859 21.454568 0.003117 0.000015 141.932000 -6.330199 -169.098600 -69.397830 -6.209401 1.519549 90.108036 -1.331810 -2.894376 21.454553 -0.003089 0.000003 9.442684 1.117490 -2.056791 8.832453 2.388593 -4.023115 8.514913 2.364139 -4.037433 1.148278 0.626398 5.684583 -5.185625 -6.723957 7.530463 135.696065 -70.820483 44.185044 -11.042195 47.056780 0.217541 -70.645063 -13.010457 2.415688 3.704567 -16.271437 34.557578 178.985107 70.691720 0.242928 -15.343921 -55.260906 -23.085375 -38.934821 18.619569 -1.665820 15.292310 17.519500 10.960351 
5.714498 0.000000 352.792589 0.000000 -80.288381 0.000000 3.575929 77.108833 -0.784134 100.251817 1.973057 170.033791 178.999669 -3.388009 173.340666 -90.212169 2.726451 -8.364003 76.977345 3.657101 -8.007126 21.454553 0.003106 0.000024 148.468218 -4.025816 -169.710134 -71.307605 -5.303873 2.462787 96.973270 -1.728616 -2.373912 21.454555 -0.003100 0.000000 9.182155 0.871863 -1.724388 8.324996 1.865381 -3.382068 8.007318 1.844783 -3.393247 -0.873224 0.460810 5.412946 -3.908325 -6.435544 7.035313 127.381976 -71.919208 52.526993 -21.666550 42.398881 -11.035407 -72.211383 -12.670473 2.457323 2.149878 -12.976792 38.027645 177.396979 73.698602 -1.318103 -29.671633 -53.031832 -8.181922 -44.793668 19.599462 -1.893784 13.752979 15.995159 3.073426 
7.127362 0.000000 365.045397 0.000000 -84.796239 0.000000 1.915924 80.089073 -0.639907 100.992172 0.666683 174.045724 169.735050 -2.521188 175.656578 -88.233272 3.182474 -13.343742 81.202773 8.227479 -4.199669 21.454563 0.003115 0.000008 158.150312 -3.039393 -168.442519 -69.042093 -6.147934 3.152254 97.968975 -2.120330 -2.552735 21.454555 -0.003088 0.000000 9.275269 0.522135 -0.921875 8.529343 1.110750 -1.802835 8.211345 1.099707 -1.809509 -3.655406 0.472445 4.581028 -3.365894 -5.747791 5.997137 119.704953 -73.217995 60.163954 -27.640114 40.866074 -16.861785 -75.960228 -11.272218 2.518713 3.632237 -10.953012 38.799784 174.853048 74.842296 -3.895984 -34.295288 -48.819795 0.218297 -55.302802 19.317303 -2.220652 10.382572 17.549346 -3.472906 
8.379386 0.000000 377.077239 0.000000 -88.642091 0.000000 1.370759 83.408859 -0.384283 102.336806 -0.794834 178.236870 163.869038 -1.375502 179.451828 -80.414187 1.931922 -15.742059 85.803063 10.693331 -0.156355 21.454553 0.003102 0.000019 169.232963 -1.298093 -168.352565 -64.838112 -6.336452 1.799306 93.033563 -1.283699 -2.216334 21.454550 -0.003086 0.000000 9.388284 0.186341 -0.432916 8.762251 0.404940 -0.850478 8.444188 0.399676 -0.852919 -4.828770 0.139199 3.663501 -3.244100 -5.542661 4.929783 120.993031 -72.988610 58.886975 -28.262139 39.309887 -17.861460 -80.796063 -8.870632 2.560144 3.360217 -8.993577 38.085415 174.113024 75.676604 -4.627936 -35.708751 -46.117827 7.132793 -66.314368 17.069596 -2.485596 9.297036 16.960919 -7.131896 
9.478749 0.000000 388.880228 0.000000 268.142959 0.000000 1.805367 86.864441 -0.254759 103.673828 -3.069903 -177.401048 160.753420 0.390000 -176.648759 -68.936006 -0.368997 -14.555089 84.477016 9.811929 -1.303722 21.454557 0.003096 0.000022 -179.446118 1.535095 -168.903557 -58.875035 -4.886113 -0.438603 81.863096 -0.014711 -2.062375 21.454553 -0.003087 -0.000003 9.373031 -0.280564 -0.123988 8.733960 -0.550921 -0.268771 8.415846 -0.552658 -0.265451 -3.568043 0.423159 2.613213 -4.093474 -5.055064 3.924032 123.156015 -72.762395 56.724014 -27.441547 39.434900 -16.792112 -84.641207 -6.590106 2.569622 2.365007 -7.073352 38.487450 174.073983 76.690054 -4.636952 -34.447045 -47.017803 15.472274 -77.189197 11.484544 -2.548626 8.168783 15.722283 -10.629244 
10.433632 0.000000 400.446474 0.000000 265.508998 0.000000 2.614639 89.797256 0.163111 103.553698 -3.287057 -174.203071 158.448354 -0.721303 -176.370634 -55.101861 -0.950216 -11.421762 82.905362 6.840447 -5.775438 21.454560 0.003108 0.000018 -171.610812 1.410897 -169.617762 -53.958552 -4.944470 -2.104440 68.100340 2.995095 3.714084 21.454551 -0.003095 -0.000004 8.953164 -0.402130 0.437280 7.890608 -0.833029 0.846173 7.572511 -0.828048 0.851192 -2.232321 0.674734 1.659946 -4.505453 -4.030797 2.829376 124.280975 -73.438419 55.526043 -26.327002 41.549352 -14.746515 -87.702791 -4.549169 2.562617 2.367731 -6.205538 38.132027 173.319096 77.126032 -5.394033 -30.082875 -48.925495 21.212346 -88.160824 3.858700 -2.493687 6.905385 15.492232 -11.593275 
11.252214 0.000000 411.768091 0.000000 263.399246 0.000000 3.890021 91.762756 0.494353 103.300068 -2.089762 -171.941858 157.619142 -2.920315 -178.239688 -39.374138 -0.573589 -7.295796 85.408572 3.291700 -10.072889 21.454555 0.003097 0.000013 -166.510969 0.352003 -170.480497 -52.655643 -4.478188 -1.507072 59.263229 6.824425 12.460991 21.454550 -0.003098 -0.000003 8.478905 -0.187715 0.870439 6.941770 -0.427098 1.728066 6.623823 -0.416805 1.730619 -2.542762 -0.477308 1.600829 -3.820886 -2.544319 2.045770 126.925050 -75.425711 52.677021 -24.402125 44.965481 -12.213917 -90.756808 -2.598212 2.562360 2.431105 -6.366144 37.120449 171.813982 77.669373 -6.910883 -26.261376 -49.925872 21.440343 -98.505419 -0.307322 -2.662109 6.426797 15.535154 -10.081378 
11.942675 0.000000 422.837189 0.000000 261.757999 0.000000 4.766425 92.755142 0.543289 103.116025 -2.381653 -170.562434 158.237315 -2.841197 -178.118575 -22.474715 -2.236254 -7.615328 84.929325 2.980235 -13.139749 21.454560 0.003114 0.000019 -162.924027 1.728193 -168.185294 -54.631330 -4.501186 -1.040198 58.744818 8.328056 16.370825 21.454560 -0.003093 0.000000 8.220466 -0.235319 1.075628 6.423217 -0.529695 2.136598 6.105333 -0.516929 2.139753 -3.877217 -2.427786 2.108651 -2.940804 -0.817339 1.510486 127.480017 -77.566394 51.926995 -20.275060 48.542342 -7.697000 -94.176281 -1.907144 2.667041 2.072462 -7.086931 35.945400 168.753921 78.443363 -10.000005 -24.409692 -50.526550 20.560830 -108.025206 -2.597961 -2.922908 6.480256 15.077153 -7.841430 
12.513195 0.000000 433.645881 0.000000 260.534479 0.000000 5.501356 92.447411 0.419253 103.398628 -1.830000 -170.568867 158.489035 -3.713196 -176.830620 -10.913755 -4.152291 -10.453813 83.716932 3.550809 -20.371178 21.454563 0.003108 0.000008 -161.185088 2.661185 -166.214170 -60.255321 -4.902095 -0.416365 64.539100 6.775199 16.041206 21.454545 -0.003089 0.000002 8.139688 -0.001812 1.400365 6.265567 -0.079096 2.798543 5.947874 -0.062323 2.798966 -6.108902 -5.779806 3.142189 -1.324735 1.232127 0.904588 129.385093 -78.960436 49.884037 -14.151991 51.006265 -2.046317 -97.658666 -1.248402 2.777059 1.440953 -7.871111 34.646268 161.407001 79.459655 -17.420934 -22.892194 -50.710897 19.408918 -117.123592 -4.413966 -3.186147 6.584313 14.039342 -4.927418 
12.971952 0.000000 444.186278 0.000000 259.684462 0.000000 6.331172 90.888649 0.023608 104.311286 -0.618224 -171.259171 156.683570 -4.802905 -179.151368 -13.552398 -3.942333 -9.404995 85.679942 2.565833 -23.382442 21.454557 0.003109 0.000018 -160.916648 3.331888 -165.593469 -67.922823 -4.482762 2.603808 69.441406 3.152250 14.238050 21.454545 -0.003086 -0.000001 8.211495 0.392122 1.710199 6.420645 0.689148 3.439483 6.103139 0.709763 3.435264 -8.275976 -7.921535 4.035747 -0.034614 2.166683 0.725734 132.568002 -80.475126 46.546021 -7.756215 52.846318 4.071904 -100.604793 -0.727462 2.872483 0.953395 -8.600595 33.542601 155.593048 80.085156 -23.284892 -22.115077 -50.206794 17.697585 -124.902003 -5.726209 -3.410983 5.813814 12.703433 -1.219543 
13.327129 0.000000 454.450493 0.000000 259.170562 0.000000 7.619682 88.127853 -0.449935 105.951952 0.208666 -171.869013 155.293954 -5.031406 176.063685 -23.099316 -2.453381 -9.278793 88.292763 3.997619 -16.697845 21.454557 0.003102 0.000011 -161.081597 4.047298 -164.464671 -76.053296 -4.700463 6.364707 73.655449 -0.731449 12.152320 21.454557 -0.003088 -0.000001 8.417526 0.632903 1.903037 6.841896 1.152545 3.840196 6.524493 1.175573 3.833178 -8.726429 -8.765883 4.477586 -0.047403 2.571252 0.739447 135.427010 -81.414366 43.588030 -1.072578 53.242349 10.309971 -102.724105 -0.416935 2.945305 0.675460 -8.504572 32.934807 153.525891 80.191851 -25.371098 -21.247603 -49.929861 14.606093 -130.613284 -6.372758 -3.583916 3.718932 11.515943 2.376884 
13.586903 0.000000 464.430637 0.000000 258.961835 0.000000 9.080593 84.765381 -1.163997 107.506289 0.863686 -174.292415 156.567948 -5.540211 175.188287 -29.495137 -2.191595 -9.421882 90.437107 4.766080 -13.804713 21.454555 0.003110 0.000017 -163.119739 5.409599 -165.334414 -84.623216 -5.164246 8.582603 78.565740 -3.710951 8.363701 21.454550 -0.003093 -0.000002 8.543335 0.741235 2.188544 7.100350 1.347189 4.418621 6.783164 1.373685 4.410413 -7.642412 -8.747582 5.000065 -0.585188 2.572655 1.334225 143.718026 -82.440827 35.151056 5.308515 52.672971 16.461603 -104.146506 -0.236469 2.995898 0.296013 -8.482531 32.576324 153.083008 79.656924 -25.853024 -19.868366 -49.807075 9.832745 -133.895094 -6.758273 -3.676058 2.099716 9.781785 5.604770 
13.759454 0.000000 474.118823 0.000000 259.033080 0.000000 9.037453 83.196449 -1.920076 107.584863 -1.192208 -178.663076 158.954690 -2.836998 175.860309 -28.325568 -2.128180 -9.370519 69.799964 3.378818 -10.934594 21.454560 0.003117 0.000020 -170.238736 8.057006 -169.350538 -92.277836 -5.554212 9.810166 79.944202 -5.062269 6.316129 21.454562 -0.003096 0.000004 8.449325 0.255792 2.252493 6.893330 0.377388 4.516177 6.576276 0.404485 4.513798 -5.361760 -7.403729 5.815461 -2.667661 1.301228 3.014244 155.455010 -82.485715 23.302961 11.523619 52.282848 20.985543 -105.435103 -0.173983 3.048569 -0.885036 -8.459865 33.338246 154.560037 79.258820 -24.378940 -20.130545 -49.669293 4.540804 -134.321503 -6.725628 -3.693189 0.669873 8.969210 5.910883 
